<svg id="Capa_1" data-name="Capa 1" xmlns="http://www.w3.org/2000/svg" viewBox="0 0 250 250"><defs><style>.cls-1{fill:#98dad9;}</style></defs><path id="path2-2" class="cls-1" d="M182,73.28a135.2,135.2,0,0,0-33.9-10.45,86.15,86.15,0,0,0-4.31,8.79,129.87,129.87,0,0,0-37.56,0c-1.16-2.74-2.9-6.22-4.31-8.79A133.52,133.52,0,0,0,68.05,73.28c-21.46,31.66-27.27,62.58-24.36,93.08a138.22,138.22,0,0,0,41.53,20.81,101.24,101.24,0,0,0,8.87-14.34,88,88,0,0,1-14-6.72c1.16-.83,2.32-1.74,3.4-2.65,27,12.35,56.29,12.35,83,0,1.16.91,2.24,1.82,3.4,2.65a88,88,0,0,1-14,6.72,101.24,101.24,0,0,0,8.87,14.34,137.7,137.7,0,0,0,41.54-20.81C209.82,131.05,200.61,100.38,182,73.28ZM97.82,147.55c-8.12,0-14.75-7.38-14.75-16.42s6.46-16.41,14.75-16.41,14.92,7.38,14.75,16.41C112.57,140.17,106,147.55,97.82,147.55Zm54.47,0c-8.13,0-14.77-7.38-14.77-16.42s6.48-16.41,14.77-16.41,14.92,7.38,14.75,16.41C167,140.17,160.58,147.55,152.29,147.55Z"/></svg>